<?xml version="1.0" encoding="utf-8"?>
<!-- Generator: Adobe Illustrator 28.2.0, SVG Export Plug-In . SVG Version: 6.00 Build 0)  -->
<svg version="1.0" id="katman_1" xmlns="http://www.w3.org/2000/svg" xmlns:xlink="http://www.w3.org/1999/xlink" x="0px" y="0px"
	 viewBox="0 0 736.1 550.79" style="enable-background:new 0 0 736.1 550.79;" xml:space="preserve">
<path d="M518.13,467.95c-3.07,4.63-4.85,7.64-5.34,9.03c-2.28,6.5-3.13,14.84-2.54,25.02c0.21,3.69,2.54,16.37,8.11,16.21
	c5.76-0.17,9.23-11.67,10.08-16.17c0.42-1.33,0.79-2.69,1.1-4.08c2.24-9.93,5.75-19.48,10.52-28.67
	c3.98-7.66,9.55-14.71,16.71-21.16c0.17-0.15,0.37-0.19,0.59-0.11c0.03,0.01,0.06,0.03,0.09,0.06c0.1,0.11,0.11,0.22,0.04,0.35
	c-0.91,1.53-1.96,3.06-3.17,4.59c-6.31,11.16-9.81,24.12-10.51,38.87c-0.55,11.61,0.62,21.17,3.51,28.67
	c0.81,2.09,1.84,4.26,3.28,5.95c2.47,2.89,5.2,3.32,8.19,1.31c3.43-1.34,6.22-3.27,8.36-5.79c6.54-7.69,11.31-17.37,14.45-26.44
	c3.14-9.07,6.18-17.32,9.12-24.75c1.06-2.68,2.26-5.26,3.59-7.74c0.7-1.29,1.07-1.2,1.12,0.26c0.43,12.22,0.38,24.27-0.15,36.16
	c-0.25,5.62-1.29,11.31-2.11,17.08l-1.4,7.77c-0.05,0.29,0.14,0.56,0.43,0.62c0.08,0.02,0.17,0.01,0.25-0.02l3.66-1.16
	c12.07-3.72,21.29-14.73,26.4-25.83c5.84-12.7,9.57-29.2,4.77-42.53c-0.04-0.08-0.01-0.19,0.07-0.23c0.08-0.04,0.19-0.01,0.23,0.07
	l5.2,7.18c5.85,14,7.59,28.25,8.87,43.27c0.15,1.73,0.49,3.34,1.03,4.85c0.18,0.48,0.71,0.73,1.18,0.56
	c0.04-0.02,0.08-0.03,0.13-0.06c1.39-0.76,2.21-1.41,2.48-1.96c1.91-1.43,3.53-3.33,4.87-5.71c5.34-9.48,7.77-19.43,7.29-29.86
	c-0.23-5.04-0.56-9.84-2.37-14.42c-1.2-3.03-2.83-6.22-4.89-9.55c-0.03-0.04-0.02-0.07,0.01-0.1l0.19-0.18
	c0.12-0.11,0.23-0.1,0.34,0.02c8.05,9.28,14.29,18.69,17.31,30.83c3.51,14.1,1.3,27.45-6.61,40.04c-0.09,0.14-0.05,0.34,0.1,0.43
	c0.03,0.02,0.07,0.03,0.1,0.04c25.01,4.94,47.87,12.86,73.08,23.04c0.19,0.08,0.25,0.22,0.18,0.41l-0.08,0.26
	c-0.02,0.07-0.06,0.09-0.13,0.08c-5.27-1.39-10.6-2.53-15.99-3.42c-22.37-3.67-45.11-6.85-68.24-9.54c-1.34-0.15-3.68,0.18-7.01,1
	c-6.41,1-12.65,0.32-18.71-2.05c-0.72-0.28-1.54-0.1-2.09,0.45c-10.01,10.08-21.52,15.56-35.74,17.99
	c-9.03,1.54-17.89,2.15-26.59,1.82c-6.95-0.26-15.32-1.23-25.13-2.91c-10.18-1.75-18.96-4.64-26.34-8.68
	c-0.91-0.5-1.9-0.8-2.97-0.91c-8.41-0.83-16.88-1.79-25.4-2.88c-10.51-1.34-24.84-2.69-42.99-4.06c-13.59-1.03-30.86-1.86-51.79-2.5
	c-6.92-0.21-13.58-0.3-19.97-0.25c-26.26,0.19-52.07,1.34-77.42,3.47c-19.05,1.59-39.09,3.69-60.13,6.29
	c-0.66,0.08-1.3,0.26-1.9,0.53c-5.19,2.32-10.01,4.47-15.53,6.02c-13.33,3.73-26.59,5.7-39.79,5.91
	c-5.05,0.09-11.71-0.42-19.99-1.51c-9.41-1.23-17.89-3.81-25.42-7.72c-5.27-3.11-10.12-6.75-14.56-10.92
	c-0.45-0.43-1.11-0.54-1.69-0.3c-6.28,2.67-13.92,3.53-20.75,1.82c-2.3-0.57-5.69-0.59-10.16-0.06
	c-24.15,2.89-46.28,5.98-66.39,9.28c-2.51,0.41-6.76,1.4-12.75,2.97c-0.45,0.11-0.54-0.02-0.27-0.4c0.11-0.15,0.26-0.27,0.43-0.35
	c23.18-9.86,46.46-17.31,69.83-22.36c0.89-0.2,2.04-0.22,2.96-0.27c0.57-0.03,0.71-0.28,0.42-0.76
	c-6.59-11.03-9.58-21.94-7.59-34.94c2.12-13.83,8.49-25.91,19.1-36.24c0.04-0.04,0.08-0.04,0.12,0l0.24,0.26
	c0.07,0.09,0.07,0.17,0,0.25c-4.11,5.18-6.78,10.68-7.48,17.24c-1.51,14.24,1.09,29.39,10.1,40.95c1.05,1.4,2.35,2.51,3.9,3.33
	c1.22,0.63,1.9,0.27,2.04-1.1l1.03-10.21c0.71-11.36,2.44-21.16,5.19-29.41c1.77-5.32,4.58-10.09,8.41-14.31
	c0.61-0.68,0.78-0.58,0.53,0.3c-3.79,12.95-1.01,27.25,4.09,39.78c3.19,7.85,8.06,14.6,14.59,20.25c3.51,3.03,7.33,5.28,11.48,6.77
	c1.27,0.82,3.02,1.4,5.27,1.75c0.35,0.05,0.49-0.09,0.43-0.44l-2.16-12.38c-1.51-11.49-2.13-22.83-1.86-34.03
	c0.11-4.93,0.2-10.01,0.26-15.22c0.01-0.47,0.16-0.53,0.47-0.17c0.65,0.75,1.16,1.59,1.53,2.52c3.31,8.2,6.69,17.39,10.16,27.56
	c1.87,5.51,4.11,10.79,6.7,15.84c2.25,4.39,5.27,8.8,9.06,13.22c2.59,3.02,5.72,5.13,9.37,6.34c0.89,0.79,2.06,1.03,3.51,0.7
	c4.05-0.92,7.38-7.89,8.23-11.22c5.08-19.93,3.41-39.4-5.02-58.41c-1-2.25-2.52-4.71-4.55-7.36l-1.67-3.27
	c-0.52-1.03-0.36-1.15,0.47-0.36c6.65,6.25,11.96,13.07,15.95,20.44c5.34,9.88,9.25,20.25,11.73,31.12
	c1.35,5.89,3.58,11.14,6.7,15.75c0.69,1.43,1.76,2.31,3.21,2.62c4.94,1.08,7.8-7.6,8.46-10.95c2.77-14.1,0.44-27.22-7.01-39.35
	c-0.05-0.09-0.04-0.16,0.04-0.21c0.39-0.25,0.43-0.29,0.12-0.1c8.65,7.81,16.95,15.24,21.43,26.34c0.65,1.61,0.8,3.34,1.14,5.04
	c0.29,1.47,0.63,1.48,1.04,0.04c1.98-7.1,2.17-14.34,0.57-21.73c-4.02-18.58-15.46-33.71-30.42-44.87
	c-18.97-14.15-40.39-20.5-64.27-19.06c-19.26,1.16-35.17,7.02-51.64,17.02c-3.36,2.04-6.05,4.67-8.98,7.32
	c-0.15,0.13-0.37,0.13-0.52,0c-0.27-0.22-0.28-0.4-0.05-0.54c0.13-0.08,0.23-0.19,0.3-0.33c2.75-5.37,4.99-9.28,6.72-11.74
	c11.98-17.04,28.29-27.33,48.94-30.86c0.31-0.05,0.42-0.23,0.33-0.52c-5.07-18.21-8.04-37.28-8.54-56.32
	c-0.41-15.63-0.15-32.01-5.93-46.7c-0.25-0.63-0.61-0.71-1.09-0.22c-4.83,4.93-9.95,9.71-15.35,14.34
	c-8.67,7.45-18.47,9.63-26.86,0.01c-2.99-3.43-6.07-7.43-9.23-11.98c-9.53-13.71-18.77-27.98-27.7-42.81
	c-16.05-26.63-29.13-54.97-38.08-85.4c-4.34-14.78-6.83-27.85-7.48-39.22c-0.19-3.25-0.05-6.67,0.41-10.25
	c1.37-10.57,7.13-16.43,15.93-21.07C38.04,84.24,58,76.88,77.91,70.59c6.44-2.04,13.06-4.28,19.85-6.71
	c0.86-0.31,1.02-0.09,0.49,0.65c-0.72,0.98-2.14,1.3-3.11,1.98c-4.87,3.45-9.77,6.89-14.69,10.3c-6.38,4.42-12.21,9.41-18.87,13.13
	c-1.34,0.74-1.27,0.92,0.21,0.53c11.35-2.98,22.67-6.69,33.97-11.12c13.37-5.25,25.88-12.85,37.51-22.79
	c12.52-10.69,23.81-22.99,35.44-34.71c10.56-10.64,23.53-19.67,38.26-21.44c28.99-3.48,47.89,15.83,61.56,38.63
	c4.68,7.81,9.17,16,13.46,24.55c0.2,0.4,0.66,0.58,1.07,0.42c17.95-6.99,36.3-10.59,55.24-12.89c25.52-3.11,51.18-2.34,76.99,2.33
	c13.75,2.49,26.67,6,38.75,10.53c0.2,0.07,0.42-0.01,0.51-0.2c4.76-9.69,9.81-18.86,15.14-27.52c11.64-18.87,27.22-35.03,50.6-36.16
	c19.98-0.97,35.13,9.47,48.39,22.95c7.24,7.37,14.32,14.51,21.24,21.44c8.79,8.79,18.39,16.58,28.81,23.38
	c6.43,4.2,12.46,7.45,18.08,9.76c10.49,4.31,17.65,7,21.47,8.09c5.22,1.49,10.49,3.11,15.82,4.84c2.81,0.91,2.98,0.57,0.49-1.03
	c-9.23-5.93-19.13-13-29.7-21.2c-1.8-1.39-3.79-2.45-5.65-3.73c-0.17-0.12-0.29-0.28-0.34-0.48c-0.03-0.09-0.03-0.19,0-0.29
	c0.06-0.21,0.27-0.34,0.49-0.29c0.02,0,0.04,0.01,0.05,0.02c1.8,0.77,3.54,1.72,5.4,2.37c5.72,2.01,11.22,3.84,16.51,5.49
	c13.4,4.18,26.14,9.1,39.46,14.89c7.55,3.27,14.09,6.58,19.62,9.93c14.32,8.67,13.8,24.08,11.56,38.61
	c-5.48,35.62-19.48,71.6-37.18,103.13c-10.47,18.67-23.67,39.2-39.58,61.6c-5.36,7.54-14.28,15.22-23.85,9.95
	c-8.38-4.61-15.69-12.42-22.79-19.48c-0.49-0.49-0.86-0.41-1.1,0.24c-3.01,8.39-4.71,17.47-5.1,27.22
	c-0.32,8.18-0.7,17.08-1.13,26.7c-0.74,16.45-3.31,32.66-7.71,48.63c-0.17,0.61,0.06,0.97,0.68,1.09
	c25.53,5.02,43.73,19.34,54.62,42.96c0.32,0.69,0.17,0.81-0.44,0.36c-2.61-1.91-4.89-4.26-7.58-6.03
	c-19.07-12.5-41.36-19.65-64.01-18.16c-26.7,1.76-48.9,12.48-66.59,32.16c-6.43,7.16-11.37,15.64-14.82,25.43
	c-3.49,9.93-3.73,19.67-0.71,29.2c0.19,0.61,0.34,0.6,0.45-0.03c1.45-8.24,5.18-15.37,11.18-21.38
	C509.29,475.47,513.23,471.97,518.13,467.95z M573.45,121.19c-5.58-9.99-11.3-18.45-17.17-25.37c-9.59-11.31-21.41-21.1-35.44-29.37
	c-7.16-4.22-16.24-7.73-24.36-11.63c-0.2-0.09-0.35-0.04-0.46,0.15l-0.13,0.22c-0.02,0.04-0.01,0.07,0.03,0.09
	c4.75,3.01,8.53,5.72,11.34,8.13c18.48,15.89,34.07,34.57,46.76,56.04c8.04,13.59,14.26,28.78,17.72,43.36
	c3.07,12.93,6.2,24.57,9.4,34.94c9.48,30.65,25.85,57.02,49.1,79.09c3.46,3.28,7.03,6.1,10.71,8.45c0.4,0.26,0.93,0.14,1.19-0.26
	c0.08-0.12,0.12-0.26,0.13-0.4c0.16-2.16,0.21-4.41-0.13-6.56c-1.47-9.21-4.61-18.04-9.43-26.5c-3.93-6.88-7.99-13.78-12.2-20.7
	c-13.37-22.03-23.61-45.18-27.36-70.83c-1.37-9.36-2.56-18.43-3.58-27.22c-2.33-20.02-8.67-40.03-22.36-53.67
	c-4.18-4.17-10.15-8.93-17.9-14.3c-0.03-0.03-0.06-0.02-0.08,0.01l-0.16,0.2c-0.13,0.16-0.12,0.31,0.03,0.45
	c10.89,9.91,17.99,22.07,21.28,36.5c0.87,3.79,1.7,8.65,2.51,14.56c0.21,1.48,0.94,2.92,1,4.5
	C573.92,121.72,573.77,121.76,573.45,121.19z M162.63,122.2c0.97-5.02,1.87-10.15,2.68-15.4c1.38-8.87,4.19-17.23,8.43-25.1
	c3.39-6.31,8.25-10.94,13.1-15.9c0.6-0.61,0.53-0.71-0.21-0.29c-21.31,12.12-34.32,33.06-38.36,57.18c-2.08,12.49-3,25.2-5.06,38.03
	c-2.37,14.72-6.35,28.36-11.95,40.92c-7.49,16.79-16.72,31.52-25.82,47.08c-6.53,11.15-11.59,22.95-11.48,35.93
	c0.01,0.92,0.41,1.16,1.22,0.71c2.27-1.25,4.37-2.71,6.3-4.39c27.69-24.15,46.85-55.5,56.24-90.97c2.38-9,4.73-18.09,7.04-27.26
	c4.73-18.75,12.38-36.08,22.94-51.98c10.15-15.29,21.44-28.99,33.87-41.1c5.6-5.45,11.95-10.23,19.06-14.33
	c0.04-0.02,0.05-0.05,0.03-0.08l-0.12-0.27c-0.06-0.12-0.15-0.16-0.28-0.11c-13.91,5.05-26.28,11.54-37.11,19.47
	c-13.99,10.24-25.87,23.13-35.65,38.68c-1.81,2.86-3.13,6.05-4.28,9.22c-0.05,0.13-0.13,0.17-0.26,0.14l-0.26-0.07
	C162.64,122.29,162.62,122.26,162.63,122.2z M259.73,370.59c-5.11,5.87-8.86,11.12-11.26,15.73c-5.81,11.2-9.41,21.83-12.26,33.65
	c-0.05,0.19,0.02,0.39,0.17,0.52c11.09,9.72,19.93,20.17,25.9,34.06c5.7,13.25,7.44,26.59,5.21,40.02
	c-0.09,0.55,0.14,0.88,0.69,0.98c12.88,2.33,25.32,1.87,37.32-1.38c14.66-3.96,28.19-10.45,40.63-19.68
	c7.83-5.81,16.72-14.26,17.59-23.99c0.15-1.66,0.25-5.62,0.3-11.89l-0.4-1.19c-0.07-0.21-0.26-0.37-0.49-0.41
	c-8.42-1.27-15.6-3.39-21.53-6.34c-15.24-7.59-26.23-19.71-32.98-36.37c-13.28-32.8,11.28-60.07,42.47-65.18
	c9.03-1.48,18.22-1.8,27.56-0.96c24.01,2.18,48.58,16.41,52.58,42.12c1.75,11.2-1.88,23.15-7.56,32.92
	c-11.5,19.81-28.4,31.03-50.69,33.66c-0.39,0.05-0.58,0.26-0.57,0.64l0.1,6.5c-0.86,6.27,0.45,11.82,3.94,16.64
	c9.54,13.19,25.15,22.5,41.04,29.26c16.37,6.97,33.48,8.85,51.33,5.64c0.2-0.03,0.29-0.15,0.26-0.36
	c-2.58-23.48,3.72-44.22,18.89-62.21c3.62-4.3,7.64-8.11,12.06-11.43c0.64-0.48,0.94-1.3,0.75-2.08
	c-3.1-12.87-8.13-25.01-15.08-36.4c-0.77-1.25-2.14-3.16-4.12-5.73c-1.42-1.83-2.77-3.78-4.05-5.85
	c11.36,9.81,22.09,20.65,29.82,33.45c0.33,0.56,0.57,0.52,0.71-0.11c0.05-0.28,0.04-0.56-0.03-0.84
	c-2.89-10.8-6.99-20.53-12.32-29.18c-6.62-10.75-14.52-20.3-23.71-28.65c-10.17-9.24-22.44-17.32-33.73-25.76
	c-17.9-13.37-29.36-32.69-36.07-54.56c-8.87-28.89-11.24-59.61-8.81-89.65c1.61-19.9,6.06-40.25,15.26-57.93
	c0.79-1.52,2.38-4.13,4.76-7.82c0.07-0.09,0.05-0.16-0.06-0.2c-0.03-0.01-0.07-0.02-0.1-0.02c-0.09,0-0.17,0.04-0.24,0.11
	c-6.96,6.85-12.83,14.32-17.62,22.41c-2.41,4.08-4.26,8.54-5.53,13.37c-0.04,0.14-0.13,0.2-0.27,0.17l-0.3-0.07
	c-0.02,0-0.03-0.01-0.02-0.03c1.12-7.27,3.03-14.97,5.74-23.08c3.26-9.78,8.93-18.32,16.13-25.97c0.92-0.97,0.83-1.07-0.26-0.3
	c-9.5,6.75-18.3,13.78-22.75,24.85c-1.05,2.61-1.41,2.52-1.06-0.27c0.63-5.03,1.53-9.69,2.72-13.98c1.35-4.85,3.65-9.89,6.89-15.14
	c3.52-5.67,8.36-9.67,13.59-13.65c1.06-0.81,0.98-0.95-0.24-0.42c-9.43,4.07-19.65,9.87-25.77,18.08c-0.83,1.12-1.33,2.51-2.16,3.67
	c-0.37,0.52-0.52,0.46-0.45-0.18c0.44-4.25,1.01-7.89,1.72-10.91c2.12-8.99,6.5-15.91,13.15-20.78c1.97-1.45,1.81-1.76-0.5-0.94
	c-4.62,1.65-9.68,2.49-15.17,2.54c-7.6,0.07-15.33,0.06-23.19-0.02c-6.85-0.07-12.56-1.31-18.67-3.67c-0.7-0.27-0.79-0.12-0.28,0.43
	c1.9,2.07,4.33,3.42,6.21,5.55c5.29,6.01,8.43,13.25,9.41,21.72c0.19,1.67,0.43,3.28,0.7,4.85c0.25,1.45-0.01,1.55-0.78,0.29
	c-5.95-9.68-17.27-16.79-27.43-21.11c-0.84-0.35-0.91-0.23-0.22,0.36c2.73,2.39,6.01,4.73,8.26,7.38
	c6.6,7.8,11.41,16.92,12.94,26.87c0.43,2.77,0.86,5.52,1.29,8.27c0.21,1.39-0.01,1.46-0.68,0.23c-3.07-5.69-6.56-11.06-11.28-15.41
	c-3.43-3.17-7.14-6.29-11.15-9.37c-0.06-0.04-0.11-0.04-0.16,0.01l-0.19,0.19c-0.03,0.03-0.03,0.06,0,0.09
	c7.89,8.56,13.84,18.83,17.02,29.65c1.76,6,3.18,12.29,4.25,18.86c0.02,0.1-0.02,0.16-0.12,0.19l-0.25,0.06
	c-0.03,0.01-0.06-0.01-0.07-0.04c-1.53-5.29-3.76-10.17-6.69-14.63c-2.96-4.5-7.63-10.52-14.02-18.07c-1.2-1.42-2.75-2.47-3.9-3.93
	c-0.1-0.12-0.21-0.13-0.33-0.04v0.01c-0.11,0.09-0.13,0.19-0.04,0.3c2.13,2.69,3.83,5.26,5.08,7.72c9.17,18,14.68,36.97,16.55,56.91
	c1.69,18.07,1.41,36.54-0.84,55.41c-2.55,21.34-7.73,41.75-17.5,60.21c-7.35,13.89-17.61,25.34-30.77,34.35
	c-9.47,6.49-17.71,12.7-24.72,18.63c-9.82,8.31-18.48,18.02-25.98,29.13c-6.71,9.93-11.22,20.5-14.2,32.28
	c-0.59,2.31-0.28,2.44,0.91,0.37C237.27,391.16,247.17,380.12,259.73,370.59z M205.26,201.69c15.26-20.09,40.63-31.98,66.15-31.51
	c0.1,0,0.16-0.05,0.17-0.15v-0.01c0.01-0.07-0.03-0.12-0.1-0.13c-21.73-3.97-41.78-2.14-56.71,14.55c-5,5.59-8.87,12.5-11.9,19.23
	c-0.56,1.26-0.39,1.37,0.51,0.33C204.04,203.25,204.66,202.48,205.26,201.69z M465.53,170.19c14.31-0.29,27.87,3.15,40.67,10.34
	c10.68,5.99,20.63,13.84,27.07,24.01c0.07,0.11,0.16,0.15,0.29,0.12c0.03-0.01,0.06-0.02,0.09-0.04c0.15-0.11,0.2-0.26,0.13-0.44
	c-2.33-5.77-5.48-11.36-9.44-16.78c-8.21-11.23-21.76-18.04-35.37-19.03c-7.8-0.57-15.65-0.11-23.56,1.4
	c-0.1,0.02-0.15,0.08-0.14,0.18v0.01C465.29,170.11,465.37,170.19,465.53,170.19z M282.88,262.73
	c-3.86-20.45-23.88-33.83-44.72-29.9c0,0,0,0,0,0c-20.83,3.94-34.59,23.7-30.73,44.15v0c3.86,20.45,23.88,33.83,44.72,29.9
	c0,0,0,0,0,0C272.98,302.95,286.74,283.18,282.88,262.73C282.88,262.73,282.88,262.73,282.88,262.73z M529.77,269.39
	c-0.25-20.78-17.63-37.41-38.81-37.15s-38.14,17.31-37.89,38.09s17.63,37.41,38.81,37.15C513.06,307.22,530.03,290.16,529.77,269.39
	z M347.96,346.3c21.98-4.71,49.03-2.8,67.72,12.12c0,0-0.04,0.02-0.12,0.05c0,0.01,0.05-0.02,0.16-0.09
	c0.05-0.03,0.05-0.06,0.02-0.11c-10.31-12.68-23.81-19.65-40.52-20.91c-21.35-1.6-42.97,3.92-55.52,21.79
	c-0.35,0.49-0.29,0.55,0.18,0.18C328.13,352.89,337.49,348.54,347.96,346.3z M342.93,374.1c12.15,7.28,6.36,21.38-1.43,28.84
	c-0.75,0.71-0.64,0.88,0.32,0.5c8.01-3.2,13.99-10.51,11.87-19.24c-1.33-5.51-4.83-9.1-10.48-10.75
	C341.43,372.93,341.34,373.14,342.93,374.1z M388.59,393.26c-3.21-8.51-1.42-14.87,5.36-19.1c1.23-0.77,1.15-0.97-0.26-0.6
	c-5.66,1.5-9.14,5.14-10.44,10.91c-1.97,8.81,3.93,15.2,11.52,18.85c0.65,0.31,0.74,0.19,0.28-0.36
	C392.49,399.87,390.05,397.12,388.59,393.26z M406.15,506.57c-13.12-3.53-24.63-8.66-37.06-14.19c-0.53-0.23-1.13-0.22-1.65,0.02
	c-9.02,4.16-18.1,7.82-27.25,10.99c-3.21,1.11-7.61,2.18-13.2,3.2c-0.04,0.01-0.06,0.03-0.05,0.07l0.03,0.28
	c0.01,0.1,0.06,0.15,0.16,0.15c26.72-0.31,53.03-0.29,78.94,0.07C407.66,507.18,407.69,506.98,406.15,506.57z"/>
<path d="M264.42,291.53c-13.26,10.58-32.69,8.29-43.39-5.12c-10.71-13.41-8.64-32.86,4.62-43.45c13.26-10.58,32.69-8.29,43.39,5.12
	C279.75,261.49,277.68,280.94,264.42,291.53z M244.38,265.99c4.7-2.95,6.04-9.29,2.98-14.16c0,0,0,0,0,0
	c-3.06-4.87-9.34-6.43-14.05-3.48c0,0,0,0,0,0c-4.7,2.95-6.04,9.29-2.98,14.16C233.39,267.38,239.67,268.94,244.38,265.99
	C244.38,265.99,244.38,265.99,244.38,265.99z"/>
<path d="M522.25,267.27c0,17.06-13.83,30.89-30.89,30.89s-30.89-13.83-30.89-30.89s13.83-30.89,30.89-30.89
	C508.42,236.38,522.25,250.21,522.25,267.27z M495.83,257.14c0-5.59-4.53-10.12-10.12-10.12s-10.12,4.53-10.12,10.12
	s4.53,10.12,10.12,10.12S495.83,262.73,495.83,257.14z"/>
</svg>
